<svg width="17" height="24" viewBox="0 0 17 24" fill="none" xmlns="http://www.w3.org/2000/svg">
<g opacity="0.6">
<path d="M16 8.84229H0.84211C0.376969 8.84229 0 9.21925 0 9.68439V20.9125C0 21.2852 0.245344 21.6139 0.602953 21.7197L8.18189 23.9653C8.25994 23.9886 8.34047 24.0002 8.42105 24.0002C8.50163 24.0002 8.58216 23.9886 8.66049 23.9653L16.2394 21.7197C16.5968 21.6139 16.8421 21.2852 16.8421 20.9125V9.68435C16.8421 9.21925 16.4651 8.84229 16 8.84229ZM15.1579 20.2837L8.42105 22.2798L1.68422 20.2837V10.5265H15.1579V20.2837H15.1579Z" fill="#505050"/>
<path d="M8.42084 0C5.1703 0 2.52612 2.66949 2.52612 5.95088V9.51581H4.21034V5.95088C4.21034 3.59831 6.09917 1.68422 8.42089 1.68422C10.7426 1.68422 12.6314 3.59831 12.6314 5.95088V9.54385H14.3157V5.95088C14.3156 2.66949 11.6711 0 8.42084 0Z" fill="#505050"/>
<path d="M8.42097 14.4561C7.95583 14.4561 7.57886 14.833 7.57886 15.2982V17.5438C7.57886 18.0089 7.95583 18.3859 8.42097 18.3859C8.88611 18.3859 9.26308 18.0089 9.26308 17.5438V15.2982C9.26308 14.833 8.88611 14.4561 8.42097 14.4561Z" fill="#505050"/>
</g>
</svg>
