<svg width="20" height="24" viewBox="0 0 20 24" fill="none" xmlns="http://www.w3.org/2000/svg">
<path d="M9.9318 12.648C9.9561 12.648 9.98041 12.648 10.0096 12.648C10.0193 12.648 10.029 12.648 10.0387 12.648C10.0533 12.648 10.0728 12.648 10.0873 12.648C11.5116 12.6236 12.6636 12.123 13.5143 11.1654C15.3857 9.05578 15.0746 5.4393 15.0406 5.09418C14.919 2.50334 13.6941 1.26382 12.683 0.685381C11.9296 0.252765 11.0498 0.0194434 10.0679 0H10.0339C10.029 0 10.0193 0 10.0144 0H9.98527C9.44571 0 8.38605 0.0874955 7.37013 0.665938C6.34935 1.24438 5.10497 2.4839 4.98344 5.09418C4.94942 5.4393 4.63832 9.05578 6.50975 11.1654C7.35554 12.123 8.50757 12.6236 9.9318 12.648ZM6.28129 5.2157C6.28129 5.20112 6.28615 5.18654 6.28615 5.17681C6.44656 1.69158 8.92074 1.31729 9.98041 1.31729H9.99985C10.0096 1.31729 10.0242 1.31729 10.0387 1.31729C11.3512 1.34646 13.5823 1.88115 13.733 5.17681C13.733 5.1914 13.733 5.20598 13.7379 5.2157C13.7427 5.24973 14.083 8.55511 12.5372 10.2953C11.9247 10.9855 11.1081 11.3258 10.0339 11.3355C10.0242 11.3355 10.0193 11.3355 10.0096 11.3355C9.99985 11.3355 9.99499 11.3355 9.98527 11.3355C8.91588 11.3258 8.09439 10.9855 7.48679 10.2953C5.94589 8.56483 6.27643 5.24487 6.28129 5.2157Z" fill="#505050"/>
<path d="M19.9987 18.6463C19.9987 18.6415 19.9987 18.6366 19.9987 18.6317C19.9987 18.5929 19.9938 18.554 19.9938 18.5102C19.9647 17.5478 19.9015 15.2972 17.7919 14.5778C17.7773 14.5729 17.7578 14.5681 17.7432 14.5632C15.551 14.0042 13.7282 12.7404 13.7087 12.7258C13.4122 12.5168 13.0039 12.5897 12.7949 12.8862C12.5859 13.1827 12.6588 13.591 12.9553 13.8C13.0379 13.8584 14.9726 15.2048 17.3933 15.827C18.5258 16.2305 18.6522 17.4408 18.6863 18.5491C18.6863 18.5929 18.6863 18.6317 18.6911 18.6706C18.696 19.1081 18.6668 19.7838 18.589 20.1726C17.8016 20.6198 14.7149 22.1656 10.0193 22.1656C5.34319 22.1656 2.23711 20.615 1.44479 20.1678C1.36701 19.7789 1.33299 19.1032 1.34271 18.6658C1.34271 18.6269 1.34757 18.588 1.34757 18.5442C1.38159 17.436 1.50798 16.2256 2.64056 15.8222C5.06126 15.2 6.99589 13.8487 7.07852 13.7952C7.37503 13.5862 7.44795 13.1779 7.23893 12.8813C7.02991 12.5848 6.6216 12.5119 6.32509 12.7209C6.30564 12.7355 4.49254 13.9993 2.29058 14.5583C2.27113 14.5632 2.25655 14.5681 2.24197 14.5729C0.132354 15.2972 0.0691626 17.5478 0.0399974 18.5054C0.0399974 18.5491 0.0399973 18.588 0.0351364 18.6269C0.0351364 18.6317 0.0351364 18.6366 0.0351364 18.6415C0.0302756 18.8942 0.0254148 20.1921 0.28304 20.8434C0.331649 20.9698 0.419144 21.0768 0.535805 21.1497C0.681631 21.2469 4.17659 23.4732 10.0242 23.4732C15.8718 23.4732 19.3668 21.242 19.5126 21.1497C19.6244 21.0768 19.7168 20.9698 19.7654 20.8434C20.0084 20.1969 20.0035 18.8991 19.9987 18.6463Z" fill="#505050"/>
</svg>
